<?xml version="1.0" encoding="utf-8"?>
<svg viewBox="0 0 800 500" xmlns="http://www.w3.org/2000/svg">
  <path d="M107.41,202.87l14.32-34.77H94.85L64.8,202.87h23.34Z" fill="#016fd0"/>
  <path d="M397.74,168.1H354.81l-8.5,20.55-9.43-20.55H283.55l-5.29,23.91-6.11-23.91H235.62l-25.4,59.63h40.67l5.12-12.94h11.59v12.94h22.27V215.73h3.71c2.82,0,3.65.09,3.65,3.47v8.53h22.27v-5.67c7.94,3.22,19.35,5.67,27.85,5.67h28.61l8.72-21.02,9.2,21.02h43.08l-27.89-34.78Zm-121.54,35.4h-21.13l17.48-41.15Z" fill="#016fd0"/>
  <path d="M735.2,168.1h-33.88v12.29c-4.82-7.4-14.36-12.29-26.22-12.29-21.99,0-38.59,17.36-38.59,39.66,0,23.79,17.53,38.68,40.84,38.68,9.94,0,19.75-2.93,26.46-10.48v8.57h32.71v-59.63l-1.32-16.8Zm-55.6,58.17c-10.33,0-18.58-7.77-18.58-18.19s8.25-18.37,18.58-18.37,18.22,7.95,18.22,18.37-7.89,18.19-18.22,18.19Z" fill="#016fd0"/>
  <path d="M485.82,168.1h-42.93l-8.5,20.55-9.43-20.55H371.63l-5.28,23.91-6.12-23.91H323.7l-25.4,59.63h40.67l5.12-12.94h11.59v12.94h22.27V215.73h3.71c2.83,0,3.65.09,3.65,3.47v8.53h22.27v-5.67c7.95,3.22,19.35,5.67,27.85,5.67h28.61l8.72-21.02,9.2,21.02h43.08l-39.42-59.63Zm-121.54,35.4h-21.13l17.48-41.15Z" fill="#016fd0"/>
  <path d="M651.55,168.1H614.82c-9.14,0-15.74,2.02-21.37,7.34v-7.34H559.54v59.63h34.05v-33.07c0-9.71,5.39-14.87,15.68-14.87h20.97c10.29,0,13-3.66,13-14.88v-4.76c-1.84,2.46-6.86,7.99-21.85,7.99Z" fill="#016fd0"/>
  <path d="M148.08,168.1l24.82,33.4-26.49,26.23h42.63l8.55-9.22,8.37,9.22h137.48V212.59c6.88,7.94,20.57,15.14,35.05,15.14h38.95l8.52-9.22,8.37,9.22h47.18l-26.84-26.23,26.84-33.4H447.59l-7.55,8.71-7.23-8.71H290.49v15.41c-5.63-10.4-18.14-15.41-34.37-15.41h-77.7l-12.79,29.08-12.97-29.08h-38.22l-21.55,48.77V168.1Z" fill="#016fd0"/>
</svg>
