<?xml version="1.0" encoding="UTF-8"?>
<svg width="800" height="600" viewBox="0 0 800 600" fill="none" xmlns="http://www.w3.org/2000/svg">
  <!-- Background Elements -->
  <circle cx="400" cy="300" r="250" fill="#1E3A8A" fill-opacity="0.05"/>
  <circle cx="400" cy="300" r="200" fill="#0D9488" fill-opacity="0.05"/>
  
  <!-- Credit Card 1 -->
  <g transform="translate(200 230) rotate(-15)">
    <rect width="320" height="180" rx="16" fill="url(#paint0_linear)"/>
    <rect x="24" y="24" width="48" height="32" rx="4" fill="white" fill-opacity="0.2"/>
    <rect x="24" y="112" width="200" height="12" rx="6" fill="white" fill-opacity="0.2"/>
    <rect x="24" y="136" width="120" height="12" rx="6" fill="white" fill-opacity="0.2"/>
  </g>

  <!-- Credit Card 2 -->
  <g transform="translate(350 150) rotate(10)">
    <rect width="320" height="180" rx="16" fill="url(#paint1_linear)"/>
    <rect x="24" y="24" width="48" height="32" rx="4" fill="white" fill-opacity="0.2"/>
    <rect x="24" y="112" width="200" height="12" rx="6" fill="white" fill-opacity="0.2"/>
    <rect x="24" y="136" width="120" height="12" rx="6" fill="white" fill-opacity="0.2"/>
  </g>

  <!-- Phone -->
  <g transform="translate(480 260)">
    <rect width="160" height="320" rx="24" fill="#1F2937" stroke="white" stroke-opacity="0.1" stroke-width="2"/>
    <rect x="8" y="24" width="144" height="272" rx="8" fill="#111827"/>
    <circle cx="80" cy="308" r="12" fill="#374151"/>
    <rect x="16" y="40" width="128" height="64" rx="8" fill="url(#paint2_linear)"/>
    <rect x="16" y="116" width="128" height="24" rx="6" fill="#374151"/>
    <rect x="16" y="152" width="128" height="24" rx="6" fill="#374151"/>
    <rect x="16" y="188" width="128" height="24" rx="6" fill="#374151"/>
    <rect x="16" y="224" width="60" height="24" rx="6" fill="#0D9488"/>
  </g>

  <!-- Coins -->
  <circle cx="200" cy="400" r="40" fill="url(#paint3_linear)" stroke="white" stroke-opacity="0.2" stroke-width="2"/>
  <circle cx="200" cy="400" r="32" fill="url(#paint4_linear)"/>
  <path d="M200 380V420M180 400H220" stroke="white" stroke-opacity="0.6" stroke-width="4"/>

  <circle cx="260" cy="450" r="30" fill="url(#paint5_linear)" stroke="white" stroke-opacity="0.2" stroke-width="2"/>
  <circle cx="260" cy="450" r="22" fill="url(#paint6_linear)"/>
  <path d="M260 435V465M245 450H275" stroke="white" stroke-opacity="0.6" stroke-width="3"/>

  <circle cx="190" cy="490" r="25" fill="url(#paint7_linear)" stroke="white" stroke-opacity="0.2" stroke-width="2"/>
  <circle cx="190" cy="490" r="17" fill="url(#paint8_linear)"/>
  <path d="M190 478V502M178 490H202" stroke="white" stroke-opacity="0.6" stroke-width="2.5"/>

  <!-- Gradients -->
  <defs>
    <linearGradient id="paint0_linear" x1="0" y1="0" x2="320" y2="180" gradientUnits="userSpaceOnUse">
      <stop stop-color="#0891B2"/>
      <stop offset="1" stop-color="#1E40AF"/>
    </linearGradient>
    <linearGradient id="paint1_linear" x1="0" y1="0" x2="320" y2="180" gradientUnits="userSpaceOnUse">
      <stop stop-color="#0D9488"/>
      <stop offset="1" stop-color="#059669"/>
    </linearGradient>
    <linearGradient id="paint2_linear" x1="16" y1="40" x2="144" y2="104" gradientUnits="userSpaceOnUse">
      <stop stop-color="#0891B2"/>
      <stop offset="1" stop-color="#0D9488"/>
    </linearGradient>
    <linearGradient id="paint3_linear" x1="160" y1="360" x2="240" y2="440" gradientUnits="userSpaceOnUse">
      <stop stop-color="#FCD34D"/>
      <stop offset="1" stop-color="#F59E0B"/>
    </linearGradient>
    <linearGradient id="paint4_linear" x1="168" y1="368" x2="232" y2="432" gradientUnits="userSpaceOnUse">
      <stop stop-color="#FBBF24"/>
      <stop offset="1" stop-color="#D97706"/>
    </linearGradient>
    <linearGradient id="paint5_linear" x1="230" y1="420" x2="290" y2="480" gradientUnits="userSpaceOnUse">
      <stop stop-color="#FCD34D"/>
      <stop offset="1" stop-color="#F59E0B"/>
    </linearGradient>
    <linearGradient id="paint6_linear" x1="238" y1="428" x2="282" y2="472" gradientUnits="userSpaceOnUse">
      <stop stop-color="#FBBF24"/>
      <stop offset="1" stop-color="#D97706"/>
    </linearGradient>
    <linearGradient id="paint7_linear" x1="165" y1="465" x2="215" y2="515" gradientUnits="userSpaceOnUse">
      <stop stop-color="#FCD34D"/>
      <stop offset="1" stop-color="#F59E0B"/>
    </linearGradient>
    <linearGradient id="paint8_linear" x1="173" y1="473" x2="207" y2="507" gradientUnits="userSpaceOnUse">
      <stop stop-color="#FBBF24"/>
      <stop offset="1" stop-color="#D97706"/>
    </linearGradient>
  </defs>
</svg>
