<?xml version="1.0" encoding="utf-8"?>
<svg viewBox="0 0 800 340" xmlns="http://www.w3.org/2000/svg">
  <path d="M666.37,109.63c0-14.01-11.58-19.27-30.09-19.27-16.43,0-34.18,4.2-52.7,12.51v-59.17c18.99-7.3,37.99-10.92,56.98-10.92,42.49,0,69.62,20.2,69.62,56.76v118.08h-40.79l-1.61-14.46c-13.58,11.86-30.09,17.69-46.43,17.69-27.12,0-47.65-16.78-47.65-44.69,0-27.05,22.78-42.57,65.65-42.57h25.22v-13.96ZM666.37,153.72h-21.33c-21.33,0-31.71,6.34-31.71,18.65,0,11.25,8.04,18.19,20.47,18.19,13.19,0,25.5-6.65,32.57-17.11v-19.73Z" fill="#32325d"/>
  <path d="M429.29,207.62c39.99,0,65.84-20.17,65.84-63.56v-100.97h-44.8v100.79c0,17.96-7.53,26.41-21.04,26.41-7.25,0-14.77-1.69-19.73-4.23l-7.63,36.83c8.44,3.39,18.95,4.74,27.36,4.74Z" fill="#32325d"/>
  <path d="M351.14,73.29c-5.31-.85-10.19-1.27-14.22-1.27-17.36,0-32.27,5.09-42.35,14.24-9.1,8.31-13.94,19.98-13.94,34.95v86.5h-44.8v-164.62h41.43l1.71,23.39c11-18.19,29.97-26.5,51.86-26.5,4.65,0,9.1.42,13.56,1.27l6.73,32.04Z" fill="#32325d"/>
  <path d="M126.82,207.71c14.69,0,31.8-3.39,45.36-9.73l7.56-36.83c-13.94,6.78-27.45,10.6-39.14,10.6-17.97,0-30.29-11.44-30.29-28.89,0-18.19,12.32-29.89,30.29-29.89,11.28,0,24.79,3.82,39.14,11.02l7.56-36.83c-12.94-6.78-30.06-10.18-45.36-10.18-48.02,0-79.39,29.05-79.39,66.74s31.37,64.01,79.27,64.01Z" fill="#32325d"/>
</svg>
