<?xml version="1.0" encoding="utf-8"?>
<svg viewBox="0 0 800 260" xmlns="http://www.w3.org/2000/svg">
  <path d="M294.65,177.87l30.25-176.75h48.41l-30.25,176.75Z" fill="#00579f"/>
  <path d="M564.77,5.38c-9.51-3.56-24.43-7.38-42.95-7.38-47.3,0-80.57,23.84-80.77,58.05-.39,25.25,23.78,39.33,41.95,47.71,18.58,8.63,24.83,14.12,24.83,21.88-.2,11.77-14.91,17.16-28.68,17.16-19.12,0-29.32-2.66-44.96-9.26l-6.17-2.8-6.71,39.23c11.18,4.91,31.81,9.16,53.24,9.36,50.29,0,82.97-23.54,83.36-60.05.19-19.96-12.62-35.28-40.28-47.76-16.79-8.14-27.07-13.53-27.07-21.78.19-7.38,8.54-15.12,27.07-15.12a86.85,86.85,0,0,1,35.32,6.68l4.22,2.07,6.42-37.1" fill="#00579f"/>
  <path d="M651.85,1.12h-37.44c-11.58,0-20.31,3.15-25.36,14.72l-72.06,162.03h50.88s8.34-22.02,10.24-26.82h62.65c1.46,6.29,5.87,26.82,5.87,26.82h44.91L651.85,1.12Zm-57.04,116.48c4.02-10.34,19.42-50.07,19.42-50.07-.19.4,4.02-10.44,6.47-17.17l3.34,15.31s9.32,42.83,11.28,51.93H594.81Z" fill="#00579f"/>
  <path d="M242.26,1.12,194.2,121.88l-5.14-24.43C182.12,71.6,152.41,42.07,119.28,26.37l44.11,151.5h52.04L279.21,1.12Z" fill="#00579f"/>
  <path d="M156.75,1.12H75.93l-.8,3.75c63.06,15.32,104.81,52.3,122,96.52L180.39,15.84c-3.14-12.07-12.26-15.52-23.64-14.72" fill="#faa61a"/>
</svg>
